<svg width="32" height="22" viewBox="0 0 32 22" fill="none" xmlns="http://www.w3.org/2000/svg">
<path d="M30.5 0H1.5C0.671573 0 0 0.67541 0 1.50857C0 2.34173 0.671573 3.01714 1.5 3.01714H30.5C31.3284 3.01714 32 2.34173 32 1.50857C32 0.67541 31.3284 0 30.5 0Z" fill="#42526E"/>
<path d="M30.5 9.05151H1.5C0.671573 9.05151 0 9.72692 0 10.5601C0 11.3932 0.671573 12.0687 1.5 12.0687H30.5C31.3284 12.0687 32 11.3932 32 10.5601C32 9.72692 31.3284 9.05151 30.5 9.05151Z" fill="#42526E"/>
<path d="M30.5 18.1028H1.5C0.671573 18.1028 0 18.7782 0 19.6114C0 20.4445 0.671573 21.1199 1.5 21.1199H30.5C31.3284 21.1199 32 20.4445 32 19.6114C32 18.7782 31.3284 18.1028 30.5 18.1028Z" fill="#42526E"/>
</svg>
